<?xml version="1.0" standalone="no"?><!DOCTYPE svg PUBLIC "-//W3C//DTD SVG 1.1//EN" "http://www.w3.org/Graphics/SVG/1.1/DTD/svg11.dtd"><svg t="1594109211851" class="icon" viewBox="0 0 1024 1024" version="1.1" xmlns="http://www.w3.org/2000/svg" p-id="7221" xmlns:xlink="http://www.w3.org/1999/xlink" width="200" height="200"><defs><style type="text/css"></style></defs><path d="M128 960c-23.466667 0-42.666667-19.2-42.666667-42.666667V277.333333c0-23.466667 19.2-42.666667 42.666667-42.666666h174.933333c19.2-98.133333 106.666667-170.666667 209.066667-170.666667s189.866667 72.533333 209.066667 170.666667H896c23.466667 0 42.666667 19.2 42.666667 42.666666v640c0 23.466667-19.2 42.666667-42.666667 42.666667H128z m42.666667-640v554.666667h682.666666V320h-128v106.666667c0 23.466667-19.2 42.666667-42.666666 42.666666s-42.666667-19.2-42.666667-42.666666v-106.666667H384v106.666667c0 23.466667-19.2 42.666667-42.666667 42.666666s-42.666667-19.2-42.666666-42.666666v-106.666667H170.666667z m341.333333-170.666667c-55.466667 0-102.4 36.266667-119.466667 85.333334h241.066667c-19.2-49.066667-66.133333-85.333333-121.6-85.333334z" fill="#d4237a" p-id="7222"></path></svg>